<svg id="ef2orqv7tczk1" xmlns="http://www.w3.org/2000/svg" xmlns:xlink="http://www.w3.org/1999/xlink" viewBox="0 0 12000 5500" shape-rendering="geometricPrecision" text-rendering="geometricPrecision"><style><![CDATA[#ef2orqv7tczk7_tr {animation: ef2orqv7tczk7_tr__tr 10000ms linear infinite normal forwards}@keyframes ef2orqv7tczk7_tr__tr { 0% {transform: translate(7561.600202px,3216.883359px) rotate(1deg)} 100% {transform: translate(7561.600202px,3216.883359px) rotate(360deg)} }]]></style><g id="ef2orqv7tczk2"><path id="ef2orqv7tczk3" d="M9703,4103L9620,4099L9620,2745L9620,1390L9715,1390L9810,1390L9810,2750C9810,3832,9807,4110,9798,4108C9791,4107,9748,4104,9703,4103Z" fill="rgb(1,1,2)" stroke="none" stroke-width="1"/><path id="ef2orqv7tczk4" d="M1912,3906C1801,3884,1713,3855,1620,3807L1535,3764L1530,3675C1527,3625,1525,3584,1526,3582C1527,3580,1550,3590,1577,3603C1659,3645,1811,3698,1898,3715C2024,3741,2197,3733,2270,3699C2390,3643,2453,3552,2453,3432C2453,3275,2373,3200,2065,3070C1689,2911,1571,2808,1539,2610C1504,2389,1676,2159,1934,2085C1982,2071,2020,2069,2124,2073C2274,2078,2357,2100,2500,2173L2585,2217L2588,2261C2589,2285,2587,2328,2583,2356L2575,2407L2490,2358C2215,2200,1965,2194,1804,2342C1741,2400,1720,2447,1720,2535C1720,2696,1774,2741,2150,2904C2429,3025,2522,3094,2590,3227C2625,3294,2625,3296,2625,3425C2625,3549,2624,3558,2595,3615C2532,3741,2388,3855,2240,3896C2160,3917,1999,3922,1912,3906Z" fill="rgb(1,1,2)" stroke="none" stroke-width="1"/><path id="ef2orqv7tczk5" d="M3000,2993L3000,2100L3100,2100L3200,2100L3200,2256L3200,2412L3244,2353C3339,2227,3463,2133,3593,2089C3647,2070,3672,2068,3790,2073C3898,2076,3937,2082,3983,2100C4117,2151,4217,2246,4300,2400C4324,2444,4346,2480,4349,2480C4352,2480,4368,2459,4385,2433C4493,2261,4681,2112,4828,2081C4857,2075,4926,2070,4980,2070C5254,2070,5455,2230,5550,2525C5573,2594,5573,2606,5580,3240C5584,3595,5587,3885,5586,3886C5586,3886,5543,3884,5493,3882L5400,3878L5399,3672C5399,3558,5395,3283,5390,3060C5383,2723,5379,2646,5365,2600C5319,2453,5233,2342,5121,2287C5058,2256,5051,2255,4930,2255C4811,2255,4802,2256,4739,2286C4650,2328,4538,2436,4455,2559L4390,2655L4390,3273L4390,3890L4296,3890L4201,3890L4197,3298C4193,2639,4193,2639,4124,2493C4080,2400,4008,2327,3921,2286C3865,2260,3840,2255,3759,2252C3654,2247,3585,2262,3497,2306C3437,2337,3302,2465,3245,2545L3202,2605L3195,3240C3191,3589,3187,3876,3186,3876C3186,3877,3143,3880,3093,3882L3000,3886L3000,2993Z" fill="rgb(1,1,2)" stroke="none" stroke-width="1"/></g><g id="ef2orqv7tczk6"/><g id="ef2orqv7tczk7_tr" transform="translate(7561.600202,3216.883359) rotate(1)"><g id="ef2orqv7tczk7" transform="translate(-7544.328613,-3218.582520)"><path id="ef2orqv7tczk8" d="M7275,5093C7195,5089,7035,5062,6985,5044C6963,5037,6939,5030,6931,5030C6923,5030,6887,5015,6852,4998C6770,4957,6738,4916,6733,4847C6729,4799,6732,4792,6762,4759C6780,4739,6838,4700,6890,4672C6942,4645,6986,4617,6988,4611C6990,4605,6972,4591,6948,4580C6859,4541,6810,4488,6810,4434C6810,4418,6827,4393,6855,4364L6900,4319L6873,4309C6741,4259,6554,4162,6512,4123C6505,4116,6495,4110,6490,4110C6485,4110,6475,4104,6468,4097C6461,4090,6430,4065,6400,4042C6215,3896,6055,3696,5955,3485C5889,3346,5867,3269,5830,3066C5818,2994,5817,2724,5829,2684C5834,2668,5843,2624,5850,2585C5867,2489,5903,2384,5958,2270C6008,2167,6109,2007,6162,1948C6180,1928,6202,1903,6210,1893C6234,1865,6363,1747,6395,1725C6410,1714,6428,1700,6434,1695C6446,1684,6531,1628,6594,1590C6648,1557,6783,1490,6795,1490C6801,1490,6816,1484,6830,1477C6973,1403,7303,1340,7539,1340C7638,1340,7859,1364,7922,1380C7946,1386,7981,1395,8000,1400C8095,1424,8164,1447,8212,1471C8222,1476,8235,1480,8241,1480C8247,1480,8290,1498,8336,1520C8383,1542,8423,1560,8426,1560C8428,1560,8443,1568,8458,1578C8473,1589,8514,1616,8550,1638C8586,1661,8620,1683,8625,1687C8712,1756,8747,1787,8815,1855C8909,1949,8953,2000,8989,2055C9003,2077,9018,2097,9021,2100C9033,2110,9109,2239,9130,2287C9174,2384,9179,2396,9195,2445C9231,2552,9254,2685,9266,2852C9282,3058,9208,3368,9098,3565C9092,3576,9077,3603,9066,3625C9054,3647,9037,3674,9028,3684C9018,3695,9010,3707,9010,3711C9010,3715,8989,3744,8963,3777C8937,3809,8911,3841,8905,3848C8883,3876,8735,4020,8728,4020C8724,4020,8710,4031,8697,4044C8684,4056,8669,4069,8663,4071C8657,4073,8640,4085,8624,4097C8578,4133,8520,4170,8510,4170C8504,4170,8500,4174,8500,4178C8500,4183,8460,4206,8410,4229C8361,4252,8320,4275,8320,4280C8320,4285,8327,4307,8336,4329C8344,4351,8355,4399,8358,4437C8365,4508,8352,4640,8338,4640C8334,4640,8330,4650,8330,4663C8330,4737,8192,4938,8108,4988C8092,4997,8080,5008,8080,5012C8080,5016,8074,5020,8067,5020C8060,5020,8038,5029,8017,5040C7937,5083,7803,5099,7530,5097C7423,5097,7308,5095,7275,5093ZM7016,4270C7024,4270,7030,4263,7030,4255C7030,4247,7028,4240,7026,4240C7015,4240,6893,4208,6875,4201C6864,4196,6839,4186,6820,4180C6747,4154,6723,4144,6650,4106C6529,4044,6440,3981,6358,3901C6279,3822,6190,3699,6190,3668C6190,3658,6186,3650,6181,3650C6176,3650,6170,3638,6167,3623C6164,3607,6157,3577,6151,3555C6129,3467,6137,3380,6177,3293C6189,3265,6200,3238,6200,3235C6200,3231,6206,3223,6213,3216C6219,3209,6236,3188,6250,3170C6282,3127,6349,3060,6360,3060C6378,3060,6378,3026,6360,2989C6332,2934,6325,2869,6340,2804C6347,2774,6356,2750,6359,2750C6362,2750,6371,2738,6377,2723C6392,2691,6479,2600,6495,2600C6498,2600,6513,2592,6527,2583C6609,2529,6773,2499,6870,2520C6998,2548,7051,2590,7096,2699L7125,2769L7275,2767L7425,2765L7428,2649C7430,2564,7427,2528,7418,2519C7411,2511,7395,2485,7383,2462C7326,2353,7378,2250,7489,2250C7544,2250,7576,2267,7594,2304C7616,2351,7624,2409,7612,2433C7585,2488,7570,2557,7564,2663L7557,2777L7616,2784C7649,2788,7689,2795,7705,2800C7722,2804,7755,2811,7780,2814L7826,2819L7850,2767C7895,2672,7962,2614,8052,2592C8108,2578,8192,2577,8234,2589C8358,2626,8392,2640,8450,2679C8534,2737,8537,2740,8590,2836C8623,2894,8621,3009,8586,3077L8560,3130L8598,3167C8668,3237,8740,3353,8769,3441C8793,3517,8777,3670,8735,3752C8727,3769,8720,3787,8720,3791C8720,3804,8631,3934,8587,3983C8564,4010,8523,4048,8495,4068C8468,4088,8439,4111,8431,4118C8424,4125,8397,4141,8371,4152C8346,4164,8323,4176,8320,4180C8317,4183,8303,4191,8288,4197C8256,4211,8251,4230,8280,4230C8308,4230,8478,4139,8571,4074C8778,3930,8949,3735,9057,3521C9089,3457,9120,3392,9126,3375C9152,3304,9179,3210,9192,3150C9210,3062,9210,2735,9191,2655C9172,2570,9140,2460,9124,2423C9116,2406,9110,2387,9110,2380C9110,2369,9099,2348,9025,2215C8987,2147,8919,2050,8909,2050C8905,2050,8898,2041,8895,2029C8888,2007,8696,1810,8645,1772C8629,1760,8594,1734,8568,1715C8542,1696,8518,1680,8514,1680C8510,1680,8499,1674,8491,1666C8454,1633,8265,1545,8117,1491C7855,1396,7501,1371,7190,1426C7143,1434,7092,1445,7075,1450C7059,1456,7014,1469,6975,1480C6937,1492,6895,1507,6883,1515C6871,1523,6856,1530,6850,1530C6834,1530,6656,1613,6652,1622C6650,1627,6644,1630,6639,1630C6631,1630,6507,1707,6475,1732C6470,1737,6441,1759,6411,1782C6315,1857,6130,2059,6130,2089C6130,2095,6126,2100,6121,2100C6116,2100,6105,2116,6096,2135C6087,2154,6075,2172,6070,2175C6064,2178,6060,2188,6060,2196C6060,2204,6051,2220,6040,2232C6029,2244,6020,2262,6020,2271C6020,2281,6017,2290,6012,2292C5999,2297,5925,2494,5909,2565C5847,2839,5865,3100,5963,3360C5996,3449,5999,3455,6048,3537C6071,3576,6090,3611,6090,3615C6090,3618,6108,3644,6130,3673C6152,3702,6180,3739,6192,3755C6236,3816,6438,4007,6510,4055C6551,4083,6587,4107,6590,4110C6612,4132,6832,4240,6855,4240C6863,4240,6870,4244,6870,4249C6870,4262,6940,4279,6974,4274C6990,4272,7009,4270,7016,4270Z" fill="rgb(1,1,2)" stroke="none" stroke-width="1"/><path id="ef2orqv7tczk9" d="M7330,5026C7327,5024,7290,5020,7248,5018C7205,5016,7167,5011,7164,5007C7160,5003,7142,5000,7125,5000C7074,5000,6940,4963,6881,4933C6812,4897,6786,4858,6807,4817C6815,4802,6838,4782,6858,4772C6878,4763,6897,4753,6900,4750C6903,4747,6931,4732,6963,4716C7025,4685,7080,4631,7080,4601C7080,4579,7032,4535,6998,4524C6957,4512,6890,4460,6890,4441C6890,4418,6903,4408,6960,4386C6985,4376,7023,4357,7044,4342C7086,4313,7099,4311,7390,4290C7636,4271,8079,4280,8217,4306C8256,4313,8277,4345,8285,4410C8288,4433,8292,4456,8295,4461C8302,4471,8284,4588,8268,4645C8234,4763,8122,4913,8035,4957C7920,5016,7883,5022,7600,5026C7454,5029,7332,5029,7330,5026Z" fill="rgb(24,43,26)" stroke="none" stroke-width="1"/><path id="ef2orqv7tczk10" d="M7029,4251C7027,4245,6996,4234,6960,4225C6924,4216,6886,4205,6875,4201C6864,4196,6839,4186,6820,4180C6747,4154,6723,4144,6650,4106C6529,4044,6440,3981,6358,3901C6279,3822,6190,3699,6190,3668C6190,3658,6186,3650,6181,3650C6176,3650,6170,3638,6167,3623C6164,3607,6157,3577,6151,3555C6129,3467,6137,3380,6177,3293C6189,3265,6200,3238,6200,3235C6200,3231,6206,3223,6213,3216C6219,3209,6236,3188,6250,3170C6282,3127,6349,3060,6360,3060C6378,3060,6378,3026,6360,2989C6332,2934,6325,2869,6340,2804C6347,2774,6356,2750,6359,2750C6362,2750,6371,2738,6377,2723C6392,2691,6479,2600,6495,2600C6498,2600,6513,2592,6527,2583C6609,2529,6773,2499,6870,2520C6998,2548,7051,2590,7096,2699L7125,2769L7275,2767L7425,2765L7428,2649C7430,2564,7427,2528,7418,2519C7411,2511,7395,2485,7383,2462C7326,2353,7378,2250,7489,2250C7544,2250,7576,2267,7594,2304C7616,2351,7624,2409,7612,2433C7585,2488,7570,2557,7564,2663L7557,2777L7616,2784C7649,2788,7689,2795,7705,2800C7722,2804,7755,2811,7780,2814L7826,2819L7850,2767C7895,2672,7962,2614,8052,2592C8108,2578,8192,2577,8234,2589C8358,2626,8392,2640,8450,2679C8534,2737,8537,2740,8590,2836C8623,2894,8621,3009,8586,3077L8560,3130L8598,3167C8668,3237,8740,3353,8769,3441C8793,3517,8777,3670,8735,3752C8727,3769,8720,3787,8720,3791C8720,3804,8631,3934,8587,3983C8564,4010,8523,4048,8495,4068C8468,4088,8439,4111,8431,4118C8424,4125,8397,4141,8371,4152C8346,4164,8323,4176,8320,4180C8317,4183,8302,4191,8287,4198C8269,4206,8260,4216,8263,4224C8272,4246,8232,4251,8124,4240C7924,4219,7558,4217,7350,4235C7044,4262,7033,4262,7029,4251Z" fill="rgb(24,43,26)" stroke="none" stroke-width="1"/><path id="ef2orqv7tczk11" d="M7315,5024C7156,5015,6967,4976,6886,4935C6786,4886,6774,4821,6855,4777C6877,4765,6897,4753,6900,4750C6903,4747,6931,4732,6963,4716C7024,4686,7080,4631,7080,4601C7080,4578,7047,4548,6990,4520C6867,4458,6860,4432,6958,4388C6995,4371,7038,4349,7053,4338C7069,4327,7096,4316,7113,4314C7131,4313,7188,4307,7240,4301C7483,4275,7788,4271,8055,4290C8243,4304,8249,4306,8271,4362C8285,4397,8288,4429,8286,4506C8284,4561,8278,4616,8272,4630C8261,4657,8253,4682,8252,4690C8252,4693,8235,4724,8214,4760C8143,4883,8036,4971,7920,5003C7838,5025,7526,5036,7315,5024Z" fill="rgb(60,62,60)" stroke="none" stroke-width="1"/><path id="ef2orqv7tczk12" d="M7029,4251C7027,4245,6996,4234,6960,4225C6924,4216,6886,4205,6875,4201C6864,4196,6839,4186,6820,4180C6747,4154,6723,4144,6650,4106C6529,4044,6440,3981,6358,3901C6279,3822,6190,3699,6190,3668C6190,3658,6186,3650,6181,3650C6176,3650,6170,3638,6167,3623C6164,3607,6157,3577,6151,3555C6129,3467,6137,3380,6177,3293C6189,3265,6200,3238,6200,3235C6200,3231,6206,3223,6213,3216C6219,3209,6236,3188,6250,3170C6282,3127,6349,3060,6360,3060C6378,3060,6378,3026,6360,2989C6332,2934,6325,2869,6340,2804C6347,2774,6356,2750,6359,2750C6362,2750,6371,2738,6377,2723C6392,2691,6479,2600,6495,2600C6498,2600,6513,2592,6527,2583C6609,2529,6773,2499,6870,2520C6998,2548,7051,2590,7096,2699L7125,2769L7275,2767L7425,2765L7428,2649C7430,2564,7427,2528,7418,2519C7411,2511,7395,2485,7383,2462C7326,2353,7378,2250,7489,2250C7544,2250,7576,2267,7594,2304C7616,2351,7624,2409,7612,2433C7585,2488,7570,2557,7564,2663L7557,2777L7616,2784C7649,2788,7689,2795,7705,2800C7722,2804,7755,2811,7780,2814L7826,2819L7850,2767C7895,2672,7962,2614,8052,2592C8108,2578,8192,2577,8234,2589C8358,2626,8392,2640,8450,2679C8534,2737,8537,2740,8590,2836C8623,2894,8621,3009,8586,3077L8560,3130L8598,3167C8668,3237,8740,3353,8769,3441C8793,3517,8777,3670,8735,3752C8727,3769,8720,3787,8720,3791C8720,3804,8631,3934,8587,3983C8564,4010,8523,4048,8495,4068C8468,4088,8439,4111,8431,4118C8424,4125,8397,4141,8371,4152C8346,4164,8323,4176,8320,4180C8317,4183,8302,4191,8287,4198C8269,4206,8260,4216,8263,4224C8272,4247,8232,4250,8105,4237C7945,4221,7450,4222,7285,4239C7074,4260,7033,4262,7029,4251Z" fill="rgb(60,62,60)" stroke="none" stroke-width="1"/><path id="ef2orqv7tczk13" d="M7029,4251C7027,4246,6996,4234,6960,4225C6924,4216,6886,4205,6875,4201C6864,4196,6839,4186,6820,4180C6747,4154,6723,4144,6650,4106C6529,4044,6440,3981,6358,3901C6279,3822,6190,3699,6190,3668C6190,3658,6186,3650,6181,3650C6176,3650,6170,3638,6167,3623C6164,3607,6157,3577,6151,3555C6129,3467,6137,3380,6177,3293C6189,3265,6200,3238,6200,3235C6200,3231,6206,3223,6213,3216C6219,3209,6236,3188,6250,3170C6282,3127,6349,3060,6360,3060C6378,3060,6378,3026,6360,2989C6332,2934,6325,2869,6340,2804C6347,2774,6356,2750,6359,2750C6362,2750,6371,2738,6377,2723C6392,2691,6479,2600,6495,2600C6498,2600,6513,2592,6527,2583C6609,2529,6773,2499,6870,2520C6998,2548,7051,2590,7096,2699L7125,2769L7275,2767L7425,2765L7428,2649C7430,2564,7427,2528,7418,2519C7411,2511,7395,2485,7383,2462C7326,2353,7378,2250,7489,2250C7544,2250,7576,2267,7594,2304C7616,2351,7624,2409,7612,2433C7585,2488,7570,2557,7564,2663L7557,2777L7616,2784C7649,2788,7689,2795,7705,2800C7722,2804,7755,2811,7780,2814L7826,2819L7850,2767C7895,2672,7962,2614,8052,2592C8108,2578,8192,2577,8234,2589C8358,2626,8392,2640,8450,2679C8534,2737,8537,2740,8590,2836C8623,2894,8621,3009,8586,3077L8560,3130L8598,3167C8668,3237,8740,3353,8769,3441C8793,3517,8777,3670,8735,3752C8727,3769,8720,3787,8720,3791C8720,3804,8631,3934,8587,3983C8564,4010,8523,4048,8495,4068C8468,4088,8439,4111,8431,4118C8424,4125,8397,4141,8371,4152C8346,4164,8323,4176,8320,4180C8317,4183,8302,4191,8287,4198C8269,4206,8260,4216,8263,4225C8272,4246,8225,4252,8140,4239C8099,4234,7939,4226,7785,4223C7512,4218,7464,4220,7079,4257C7051,4260,7031,4257,7029,4251Z" fill="rgb(20,63,77)" stroke="none" stroke-width="1"/><path id="ef2orqv7tczk14" d="M7315,5024C7156,5015,6967,4976,6886,4935C6786,4886,6774,4821,6855,4777C6877,4765,6897,4753,6900,4750C6903,4747,6931,4732,6963,4716C7024,4686,7080,4631,7080,4601C7080,4578,7047,4548,6990,4520C6867,4458,6860,4432,6958,4388C6995,4371,7038,4349,7053,4338C7083,4316,7130,4311,7450,4289C7617,4278,7899,4283,8110,4300C8173,4305,8231,4310,8237,4310C8279,4310,8302,4532,8271,4630C8211,4816,8075,4960,7920,5002C7839,5025,7527,5036,7315,5024Z" fill="rgb(37,90,92)" stroke="none" stroke-width="1"/><path id="ef2orqv7tczk15" d="M7100,4233C7100,4203,7071,4170,7044,4170C7020,4170,6846,4119,6836,4109C6830,4104,6820,4100,6812,4100C6805,4100,6761,4082,6715,4060C6669,4038,6626,4020,6621,4020C6615,4020,6610,4016,6610,4012C6610,4007,6598,3997,6583,3989C6542,3969,6491,3931,6436,3880C6339,3790,6322,3771,6278,3692C6232,3613,6221,3576,6214,3492C6201,3341,6274,3202,6418,3103C6470,3067,6486,3031,6459,3014C6437,3001,6410,2924,6410,2873C6410,2798,6438,2741,6505,2684C6567,2630,6624,2607,6736,2590C6788,2582,6820,2582,6856,2590C6916,2604,6980,2630,6980,2641C6980,2645,6986,2655,6993,2662C7007,2677,7019,2700,7054,2782L7079,2839L7297,2840C7442,2840,7545,2846,7605,2856C7765,2882,7858,2893,7874,2887C7883,2883,7890,2872,7890,2862C7890,2830,7930,2759,7973,2717C8035,2655,8127,2635,8225,2661C8330,2688,8404,2724,8450,2769C8521,2837,8540,2877,8540,2958C8540,3027,8521,3074,8479,3111C8468,3120,8460,3135,8460,3144C8460,3166,8483,3190,8504,3190C8533,3190,8629,3303,8667,3380C8700,3449,8703,3462,8703,3545C8702,3633,8701,3643,8686,3685C8655,3768,8626,3829,8607,3852C8594,3867,8575,3891,8564,3906C8546,3931,8518,3960,8460,4011C8425,4042,8344,4092,8285,4119C8180,4167,8185,4163,8187,4206L8188,4246L8132,4238C8101,4234,7947,4227,7790,4224C7572,4219,7461,4222,7319,4234C7216,4242,7125,4252,7116,4256C7104,4261,7100,4256,7100,4233ZM7600,3155C7641,3134,7667,3093,7653,3071C7637,3046,7613,3046,7577,3074C7550,3095,7532,3100,7486,3100C7424,3100,7399,3091,7359,3053C7335,3031,7330,3030,7311,3042C7263,3071,7305,3133,7390,3159C7415,3166,7440,3174,7445,3176C7467,3184,7572,3169,7600,3155ZM8250,3020C8279,2994,8284,2984,8284,2939C8285,2891,8282,2885,8246,2854C8195,2810,8146,2808,8100,2847C8041,2896,8038,2966,8092,3020C8116,3045,8130,3050,8169,3050C8208,3050,8223,3044,8250,3020ZM6790,2953C6819,2932,6830,2916,6834,2888C6846,2816,6796,2750,6729,2750C6652,2750,6604,2796,6606,2869C6607,2907,6613,2918,6643,2947C6690,2990,6736,2991,6790,2953Z" fill="rgb(37,90,92)" stroke="none" stroke-width="1"/><path id="ef2orqv7tczk16" d="M7482,2761C7468,2753,7469,2716,7485,2595C7491,2550,7488,2542,7464,2515C7430,2476,7400,2407,7400,2365C7400,2321,7441,2290,7498,2290C7534,2290,7539,2294,7555,2327C7575,2368,7570,2455,7546,2493C7538,2505,7529,2556,7526,2605C7518,2718,7510,2770,7502,2770C7498,2770,7489,2766,7482,2761Z" fill="rgb(37,90,92)" stroke="none" stroke-width="1"/><path id="ef2orqv7tczk17" d="M7315,5024C7144,5012,6966,4975,6886,4935C6787,4886,6775,4821,6855,4777C6877,4765,6897,4753,6900,4750C6903,4747,6931,4732,6963,4716C7024,4686,7080,4631,7080,4602C7080,4581,7034,4535,7004,4526C6993,4523,6963,4506,6937,4490C6869,4447,6873,4426,6958,4388C6995,4371,7037,4349,7052,4338C7081,4318,7152,4309,7450,4289C7617,4278,7900,4283,8110,4300C8173,4305,8230,4310,8236,4310C8242,4310,8256,4329,8266,4352C8289,4403,8292,4563,8271,4625C8236,4730,8186,4815,8121,4880C8055,4946,7964,5000,7917,5000C7904,5000,7889,5005,7883,5011C7872,5022,7428,5032,7315,5024Z" fill="rgb(39,122,130)" stroke="none" stroke-width="1"/><path id="ef2orqv7tczk18" d="M7100,4233C7100,4203,7071,4170,7044,4170C7020,4170,6846,4119,6836,4109C6830,4104,6820,4100,6812,4100C6791,4100,6570,3990,6550,3970C6547,3967,6527,3952,6505,3935C6483,3919,6460,3901,6454,3895C6448,3890,6428,3871,6409,3855C6263,3726,6186,3527,6223,3376C6248,3274,6334,3157,6432,3092C6470,3067,6483,3029,6459,3014C6437,3001,6410,2924,6410,2873C6410,2785,6458,2707,6552,2646C6618,2603,6778,2573,6855,2590C6914,2603,6980,2630,6980,2641C6980,2645,6986,2655,6993,2662C7007,2677,7019,2700,7054,2782L7079,2839L7297,2840C7442,2840,7545,2846,7605,2856C7765,2882,7858,2893,7874,2887C7883,2883,7890,2872,7890,2862C7890,2830,7930,2759,7973,2717C8035,2655,8127,2635,8225,2661C8330,2688,8404,2724,8450,2769C8521,2837,8540,2877,8540,2958C8540,3027,8521,3074,8479,3111C8468,3120,8460,3135,8460,3144C8460,3166,8484,3190,8504,3190C8519,3190,8583,3250,8625,3305C8638,3322,8660,3364,8675,3400C8707,3478,8713,3594,8688,3675C8672,3727,8631,3821,8620,3830C8617,3833,8603,3851,8590,3870C8562,3912,8469,4006,8420,4042C8390,4064,8330,4096,8210,4154C8189,4164,8185,4173,8187,4206L8188,4246L8072,4232C7882,4210,7210,4226,7119,4255C7103,4260,7100,4256,7100,4233ZM7600,3155C7641,3134,7667,3093,7653,3071C7637,3046,7613,3046,7577,3074C7550,3095,7532,3100,7486,3100C7424,3100,7399,3091,7359,3053C7335,3031,7330,3030,7311,3042C7263,3071,7305,3133,7390,3159C7415,3166,7440,3174,7445,3176C7467,3184,7572,3169,7600,3155ZM8250,3020C8279,2994,8284,2984,8284,2939C8285,2891,8282,2885,8246,2854C8195,2810,8146,2808,8100,2847C8041,2896,8038,2966,8092,3020C8116,3045,8130,3050,8169,3050C8208,3050,8223,3044,8250,3020ZM6790,2953C6819,2932,6830,2916,6834,2888C6846,2816,6796,2750,6729,2750C6652,2750,6604,2796,6606,2869C6607,2907,6613,2918,6643,2947C6690,2990,6736,2991,6790,2953Z" fill="rgb(39,122,130)" stroke="none" stroke-width="1"/><path id="ef2orqv7tczk19" d="M7474,2698C7476,2663,7482,2616,7486,2593C7491,2559,7488,2545,7469,2518C7456,2500,7443,2483,7439,2480C7426,2470,7400,2397,7400,2370C7400,2305,7502,2262,7545,2310C7569,2336,7571,2432,7549,2480C7539,2500,7529,2556,7525,2610C7516,2744,7512,2760,7488,2760C7470,2760,7469,2755,7474,2698Z" fill="rgb(39,122,130)" stroke="none" stroke-width="1"/><path id="ef2orqv7tczk20" d="M7315,5024C7144,5012,6966,4975,6886,4935C6787,4886,6775,4821,6855,4777C6877,4765,6897,4753,6900,4750C6903,4747,6931,4732,6963,4716C7024,4686,7080,4631,7080,4602C7080,4581,7034,4535,7004,4526C6993,4523,6963,4506,6937,4490C6869,4447,6873,4426,6958,4388C6995,4371,7037,4349,7052,4338C7081,4318,7152,4309,7450,4289C7617,4278,7900,4283,8110,4300C8173,4305,8230,4310,8236,4310C8242,4310,8256,4329,8266,4352C8289,4403,8292,4562,8271,4625C8210,4809,8096,4942,7960,4985C7930,4995,7896,5007,7886,5013C7867,5022,7415,5031,7315,5024Z" fill="rgb(112,113,112)" stroke="none" stroke-width="1"/><path id="ef2orqv7tczk21" d="M7100,4231C7100,4203,7070,4170,7044,4170C7020,4170,6846,4119,6836,4109C6830,4104,6820,4100,6812,4100C6790,4100,6590,4000,6590,3989C6590,3984,6586,3980,6580,3980C6561,3980,6464,3905,6399,3840C6324,3764,6275,3692,6240,3605C6207,3525,6207,3398,6238,3327C6280,3234,6342,3158,6429,3096C6470,3066,6483,3029,6459,3014C6437,3001,6410,2924,6410,2873C6410,2785,6458,2707,6552,2646C6618,2603,6778,2573,6855,2590C6914,2603,6980,2630,6980,2641C6980,2645,6986,2655,6993,2662C7007,2677,7019,2700,7054,2783L7079,2840L7297,2840C7442,2841,7545,2846,7605,2856C7767,2882,7858,2893,7874,2887C7883,2883,7890,2872,7890,2861C7890,2830,7932,2759,7975,2715C8035,2655,8128,2635,8225,2661C8330,2688,8404,2724,8450,2769C8521,2837,8540,2877,8540,2958C8540,3027,8521,3074,8479,3111C8445,3141,8459,3179,8510,3194C8550,3205,8640,3317,8672,3394C8711,3490,8712,3601,8673,3709C8659,3751,8644,3787,8641,3790C8638,3793,8628,3807,8620,3821C8585,3883,8452,4030,8431,4030C8427,4030,8415,4038,8404,4048C8394,4058,8372,4073,8355,4082C8321,4099,8247,4136,8210,4154C8189,4164,8185,4173,8187,4206L8188,4246L8117,4236C8031,4223,7411,4221,7290,4233C7243,4238,7181,4245,7153,4249C7101,4257,7100,4257,7100,4231ZM7600,3155C7641,3134,7667,3093,7653,3071C7637,3046,7613,3046,7577,3074C7550,3095,7532,3100,7486,3100C7424,3100,7399,3091,7359,3053C7335,3031,7330,3030,7311,3042C7263,3071,7305,3133,7390,3159C7415,3166,7440,3174,7445,3176C7467,3184,7572,3169,7600,3155ZM8250,3020C8279,2994,8284,2984,8284,2939C8285,2891,8282,2885,8246,2854C8195,2810,8146,2808,8100,2847C8041,2896,8038,2966,8092,3020C8116,3045,8130,3050,8169,3050C8208,3050,8223,3044,8250,3020ZM6790,2953C6819,2932,6831,2916,6835,2890C6847,2818,6796,2750,6729,2750C6652,2750,6604,2796,6606,2869C6607,2907,6613,2918,6643,2947C6690,2990,6736,2991,6790,2953Z" fill="rgb(112,113,112)" stroke="none" stroke-width="1"/><path id="ef2orqv7tczk22" d="M7315,5024C7144,5012,6966,4975,6886,4935C6787,4886,6775,4821,6855,4777C6877,4765,6897,4753,6900,4750C6903,4747,6931,4732,6962,4716C7106,4645,7117,4575,6992,4520C6929,4492,6890,4461,6890,4440C6890,4426,6917,4408,6993,4370C7109,4311,7130,4308,7475,4290C7654,4281,8017,4289,8186,4306L8248,4313L8267,4359C8289,4414,8291,4563,8271,4625C8240,4719,8187,4812,8132,4869C8062,4941,8030,4962,7960,4985C7930,4995,7894,5007,7880,5012C7855,5022,7413,5031,7315,5024Z" fill="rgb(53,168,158)" stroke="none" stroke-width="1"/><path id="ef2orqv7tczk23" d="M7100,4232C7100,4203,7070,4170,7044,4170C7020,4170,6846,4119,6836,4109C6830,4104,6820,4100,6812,4100C6790,4100,6590,4000,6590,3989C6590,3984,6586,3980,6580,3980C6561,3980,6464,3905,6399,3840C6324,3764,6275,3692,6240,3605C6207,3525,6207,3398,6238,3327C6280,3234,6342,3158,6429,3096C6470,3066,6483,3029,6459,3014C6437,3001,6410,2924,6410,2873C6410,2785,6458,2707,6552,2646C6618,2603,6778,2573,6855,2590C6914,2603,6980,2630,6980,2641C6980,2645,6986,2655,6993,2662C7007,2677,7019,2700,7054,2783L7079,2840L7297,2840C7442,2841,7545,2846,7605,2856C7767,2882,7858,2893,7874,2887C7883,2883,7890,2872,7890,2861C7890,2830,7932,2759,7975,2715C8035,2655,8128,2635,8225,2661C8330,2688,8404,2724,8450,2769C8521,2837,8540,2877,8540,2958C8540,3027,8521,3074,8479,3111C8445,3141,8459,3179,8510,3194C8550,3205,8640,3317,8672,3394C8711,3490,8712,3601,8673,3709C8659,3751,8644,3787,8641,3790C8638,3793,8628,3807,8620,3821C8585,3883,8452,4030,8431,4030C8427,4030,8415,4038,8404,4048C8394,4058,8372,4073,8355,4082C8321,4099,8247,4136,8210,4154C8189,4164,8185,4173,8187,4206L8188,4246L8092,4233C7952,4215,7465,4216,7276,4235C7193,4244,7119,4253,7113,4255C7104,4258,7100,4250,7100,4232ZM7600,3155C7641,3134,7667,3093,7653,3071C7637,3046,7613,3046,7577,3074C7550,3095,7532,3100,7486,3100C7424,3100,7399,3091,7359,3053C7335,3031,7330,3030,7311,3042C7263,3071,7305,3133,7390,3159C7415,3166,7440,3174,7445,3176C7467,3184,7572,3169,7600,3155ZM8250,3020C8279,2994,8284,2984,8284,2939C8285,2891,8282,2885,8246,2854C8195,2810,8146,2808,8100,2847C8041,2896,8038,2966,8092,3020C8116,3045,8130,3050,8169,3050C8208,3050,8223,3044,8250,3020ZM6790,2953C6819,2932,6831,2916,6835,2890C6847,2818,6796,2750,6729,2750C6652,2750,6604,2796,6606,2869C6607,2907,6613,2918,6643,2947C6690,2990,6736,2991,6790,2953Z" fill="rgb(53,168,158)" stroke="none" stroke-width="1"/><path id="ef2orqv7tczk24" d="M7470,2743C7470,2733,7475,2686,7481,2638L7491,2551L7462,2508C7384,2394,7380,2337,7447,2302C7480,2284,7525,2288,7544,2309C7567,2335,7569,2422,7547,2480C7533,2516,7510,2685,7510,2746C7510,2754,7501,2760,7490,2760C7478,2760,7470,2753,7470,2743Z" fill="rgb(53,168,158)" stroke="none" stroke-width="1"/><path id="ef2orqv7tczk25" d="M7325,5024C7143,5008,7001,4983,6940,4958C6847,4919,6813,4894,6804,4857C6799,4834,6804,4824,6835,4795C6855,4776,6877,4760,6885,4760C6892,4760,6900,4757,6902,4753C6904,4748,6931,4732,6962,4717C7109,4643,7117,4577,6985,4516C6914,4483,6886,4458,6894,4434C6898,4422,6937,4397,7002,4366C7118,4310,7127,4309,7470,4290C7658,4280,8048,4290,8190,4308C8242,4315,8246,4317,8264,4355C8290,4409,8291,4563,8266,4635C8231,4737,8187,4813,8126,4875C8070,4932,7985,4984,7932,4995C7921,4997,7895,5004,7874,5010C7836,5021,7411,5032,7325,5024Z" fill="rgb(141,141,141)" stroke="none" stroke-width="1"/><path id="ef2orqv7tczk26" d="M7325,5024C7143,5008,7001,4983,6940,4958C6847,4919,6813,4894,6804,4857C6799,4834,6804,4824,6835,4795C6855,4776,6877,4760,6885,4760C6892,4760,6900,4757,6902,4753C6904,4748,6931,4732,6962,4717C7109,4643,7117,4577,6985,4516C6914,4483,6886,4458,6894,4434C6898,4422,6937,4397,7002,4366C7093,4322,7116,4315,7200,4308C7453,4284,8009,4284,8185,4307C8242,4315,8246,4317,8264,4355C8290,4409,8291,4563,8266,4635C8231,4737,8187,4813,8126,4875C8070,4932,7985,4984,7932,4995C7921,4997,7895,5004,7874,5010C7836,5021,7411,5032,7325,5024Z" fill="rgb(120,220,115)" stroke="none" stroke-width="1"/><path id="ef2orqv7tczk27" d="M7285,5020C7188,5009,7080,4993,7060,4987C7052,4985,7027,4980,7005,4976C6970,4969,6914,4945,6835,4902C6783,4874,6798,4806,6865,4774C6884,4765,6900,4754,6900,4749C6900,4744,6903,4741,6908,4742C6931,4747,7020,4691,7067,4643C7085,4624,7088,4615,7080,4594C7067,4560,7052,4547,7000,4521C6904,4475,6889,4461,6897,4429C6902,4413,6925,4398,6940,4401C6943,4402,6968,4389,6997,4372C7066,4331,7101,4322,7260,4305C7429,4286,7871,4285,8074,4302L8223,4314L8217,4425C8213,4500,8204,4557,8189,4605C8163,4685,8096,4817,8069,4843C8058,4853,8050,4864,8050,4868C8049,4882,7965,4966,7935,4983C7918,4992,7887,5004,7865,5010C7814,5025,7390,5031,7285,5020Z" fill="rgb(90,205,174)" stroke="none" stroke-width="1"/><path id="ef2orqv7tczk28" d="M7100,4226C7100,4199,7071,4170,7045,4170C7035,4170,7013,4166,6996,4160C6979,4155,6938,4143,6905,4134C6872,4124,6841,4113,6836,4108C6830,4104,6820,4100,6814,4100C6789,4100,6664,4036,6568,3973C6467,3908,6317,3767,6304,3726C6300,3714,6295,3703,6291,3700C6279,3690,6251,3633,6235,3587C6226,3561,6219,3503,6218,3458C6217,3383,6220,3368,6250,3306C6282,3240,6361,3148,6438,3090C6470,3065,6481,3028,6459,3014C6438,3002,6410,2918,6410,2870C6410,2785,6460,2706,6552,2646C6618,2603,6772,2575,6852,2590C6912,2602,6980,2629,6980,2641C6980,2645,6986,2655,6993,2662C7007,2677,7019,2700,7054,2783L7079,2840L7298,2840C7418,2840,7541,2844,7571,2850C7680,2869,7696,2871,7777,2882C7867,2894,7890,2890,7890,2861C7890,2801,7989,2683,8055,2663C8170,2629,8380,2689,8464,2780C8524,2846,8540,2882,8540,2960C8540,3000,8536,3030,8530,3030C8525,3030,8520,3038,8520,3049C8520,3059,8507,3081,8490,3098C8446,3144,8453,3178,8510,3194C8547,3204,8631,3310,8667,3392C8694,3453,8699,3478,8699,3546C8701,3739,8575,3939,8372,4067C8335,4090,8289,4117,8270,4125C8184,4164,8185,4164,8187,4206L8188,4246L8092,4233C7974,4217,7426,4214,7325,4229C7287,4234,7220,4241,7178,4244C7101,4250,7100,4249,7100,4226ZM7598,3156C7641,3134,7667,3093,7653,3071C7637,3046,7613,3046,7577,3074C7550,3095,7532,3100,7486,3100C7424,3100,7399,3091,7359,3053C7335,3031,7330,3030,7311,3042C7300,3049,7290,3064,7290,3076C7290,3098,7341,3150,7363,3150C7370,3150,7380,3154,7386,3159C7411,3183,7549,3181,7598,3156ZM8250,3020C8279,2994,8284,2984,8284,2939C8285,2891,8282,2885,8246,2854C8191,2807,8144,2807,8092,2854C8058,2886,8055,2892,8057,2940C8058,2985,8062,2995,8091,3021C8138,3062,8203,3062,8250,3020ZM6773,2969C6803,2953,6830,2924,6830,2907C6830,2900,6835,2889,6841,2883C6855,2869,6829,2807,6794,2775C6738,2723,6638,2750,6610,2826C6575,2918,6685,3014,6773,2969Z" fill="rgb(90,205,174)" stroke="none" stroke-width="1"/><path id="ef2orqv7tczk29" d="M7470,2744C7470,2736,7475,2686,7481,2635L7492,2541L7462,2503C7422,2453,7396,2387,7404,2355C7412,2325,7464,2290,7501,2290C7543,2290,7560,2318,7560,2389C7560,2426,7554,2463,7544,2481C7535,2499,7524,2563,7518,2636C7508,2745,7504,2760,7488,2760C7478,2760,7470,2753,7470,2744Z" fill="rgb(90,205,174)" stroke="none" stroke-width="1"/><path id="ef2orqv7tczk30" d="M7100,4226C7100,4200,7071,4170,7046,4170C7037,4170,7005,4163,6977,4154C6948,4146,6907,4134,6885,4128C6863,4122,6841,4113,6836,4108C6830,4104,6820,4100,6814,4100C6792,4100,6655,4033,6624,4007C6608,3994,6586,3980,6575,3976C6564,3973,6542,3959,6526,3945C6510,3931,6494,3920,6489,3920C6485,3920,6448,3886,6407,3844C6341,3779,6310,3735,6254,3634C6224,3579,6208,3442,6225,3381C6244,3316,6263,3270,6272,3270C6276,3270,6280,3265,6280,3260C6280,3240,6361,3154,6440,3088L6484,3052L6457,3013C6442,2991,6430,2967,6430,2958C6430,2949,6426,2938,6420,2935C6402,2924,6409,2822,6431,2775C6459,2715,6545,2639,6600,2625C6603,2625,6621,2619,6640,2612C6659,2606,6692,2598,6714,2595C6735,2593,6761,2588,6771,2585C6808,2573,6980,2619,6980,2641C6980,2645,6986,2655,6993,2662C7000,2669,7018,2704,7033,2740C7049,2776,7065,2812,7069,2820C7076,2832,7120,2836,7331,2841C7471,2844,7592,2849,7600,2853C7608,2856,7633,2861,7655,2865C7677,2868,7731,2877,7775,2884C7862,2899,7890,2893,7890,2860C7890,2842,7907,2803,7920,2790C7923,2787,7932,2772,7940,2756C7959,2719,8026,2670,8057,2670C8069,2670,8080,2666,8080,2660C8080,2644,8222,2656,8283,2678C8365,2708,8400,2724,8400,2732C8400,2737,8406,2740,8413,2740C8427,2740,8500,2813,8500,2827C8500,2831,8509,2846,8520,2860C8535,2879,8540,2901,8540,2958C8540,2997,8536,3030,8531,3030C8526,3030,8519,3041,8516,3055C8513,3068,8499,3090,8485,3104C8444,3145,8454,3179,8510,3194C8550,3204,8660,3346,8660,3388C8660,3400,8665,3410,8670,3410C8676,3410,8680,3419,8680,3429C8680,3440,8685,3452,8690,3455C8696,3458,8700,3496,8700,3539C8700,3629,8676,3713,8623,3809C8578,3889,8432,4038,8367,4069C8341,4082,8314,4097,8307,4104C8285,4124,8251,4140,8232,4140C8200,4140,8177,4175,8184,4213L8190,4247L8103,4233C7992,4216,7453,4213,7320,4228C7268,4234,7197,4241,7163,4244C7103,4248,7100,4247,7100,4226ZM7598,3156C7641,3134,7667,3093,7653,3071C7637,3045,7605,3047,7575,3074C7551,3096,7538,3100,7484,3100C7428,3100,7417,3096,7376,3065C7336,3035,7327,3032,7310,3042C7299,3049,7290,3064,7290,3075C7291,3099,7312,3130,7329,3130C7335,3130,7340,3135,7340,3140C7340,3146,7346,3150,7354,3150C7361,3150,7381,3157,7396,3165C7433,3184,7554,3179,7598,3156ZM8250,3020C8279,2994,8284,2983,8284,2943C8285,2867,8238,2820,8159,2820C8095,2820,8044,2889,8056,2959C8072,3047,8181,3081,8250,3020ZM6773,2969C6803,2953,6830,2924,6830,2907C6830,2900,6835,2889,6841,2883C6855,2869,6829,2807,6794,2775C6756,2740,6684,2740,6646,2775C6591,2826,6589,2891,6643,2948C6667,2973,6682,2980,6713,2980C6734,2980,6761,2975,6773,2969Z" fill="rgb(198,149,162)" stroke="none" stroke-width="1"/><path id="ef2orqv7tczk31" d="M7285,5020C7188,5009,7080,4993,7060,4987C7052,4985,7027,4980,7005,4976C6970,4969,6914,4945,6835,4902C6783,4874,6798,4806,6865,4774C6884,4765,6900,4754,6900,4749C6900,4744,6903,4741,6908,4742C6931,4747,7020,4691,7067,4643C7085,4624,7088,4615,7080,4594C7067,4560,7052,4547,7000,4521C6904,4475,6889,4461,6897,4429C6902,4413,6925,4398,6940,4401C6943,4402,6968,4389,6997,4372C7066,4331,7102,4322,7260,4305C7428,4286,7879,4285,8079,4302L8223,4314L8217,4425C8213,4500,8204,4557,8189,4605C8163,4685,8096,4817,8069,4843C8058,4853,8050,4864,8050,4868C8049,4882,7965,4966,7935,4983C7918,4992,7887,5004,7865,5010C7814,5025,7390,5031,7285,5020Z" fill="rgb(172,172,168)" stroke="none" stroke-width="1"/><path id="ef2orqv7tczk32" d="M7100,4226C7100,4200,7071,4170,7046,4170C7037,4170,7005,4163,6977,4154C6948,4146,6907,4134,6885,4128C6863,4122,6841,4113,6836,4108C6830,4104,6820,4100,6814,4100C6792,4100,6655,4033,6624,4007C6608,3994,6586,3980,6575,3976C6564,3973,6542,3959,6526,3945C6510,3931,6494,3920,6489,3920C6485,3920,6448,3886,6407,3844C6341,3779,6310,3735,6254,3634C6224,3579,6208,3442,6225,3381C6244,3316,6263,3270,6272,3270C6276,3270,6280,3265,6280,3260C6280,3240,6361,3154,6440,3088L6484,3052L6457,3013C6442,2991,6430,2967,6430,2958C6430,2949,6426,2938,6420,2935C6402,2924,6409,2822,6431,2775C6459,2715,6545,2639,6600,2625C6603,2625,6621,2619,6640,2612C6659,2606,6692,2598,6714,2595C6735,2593,6761,2588,6771,2585C6808,2573,6980,2619,6980,2641C6980,2645,6986,2655,6993,2662C7000,2669,7018,2704,7033,2740C7049,2776,7065,2812,7069,2820C7076,2832,7120,2836,7331,2841C7471,2844,7592,2849,7600,2853C7608,2856,7633,2861,7655,2865C7677,2868,7731,2877,7775,2884C7862,2899,7890,2893,7890,2860C7890,2842,7907,2803,7920,2790C7923,2787,7932,2772,7940,2756C7959,2719,8026,2670,8057,2670C8069,2670,8080,2666,8080,2660C8080,2644,8222,2656,8283,2678C8365,2708,8400,2724,8400,2732C8400,2737,8406,2740,8413,2740C8427,2740,8500,2813,8500,2827C8500,2831,8509,2846,8520,2860C8535,2879,8540,2901,8540,2958C8540,2997,8536,3030,8531,3030C8526,3030,8519,3041,8516,3055C8513,3068,8499,3090,8485,3104C8444,3145,8454,3179,8510,3194C8550,3204,8660,3346,8660,3388C8660,3400,8665,3410,8670,3410C8676,3410,8680,3419,8680,3429C8680,3440,8685,3452,8690,3455C8696,3458,8700,3496,8700,3539C8700,3629,8676,3713,8623,3809C8578,3889,8432,4038,8367,4069C8341,4082,8314,4097,8307,4104C8285,4124,8251,4140,8232,4140C8200,4140,8177,4175,8184,4213L8190,4247L8103,4233C7992,4216,7453,4213,7320,4228C7268,4234,7197,4241,7163,4244C7103,4248,7100,4247,7100,4226ZM8279,3342C8303,3333,8329,3316,8336,3305C8348,3287,8347,3280,8330,3252C8319,3234,8302,3220,8291,3220C8280,3220,8270,3215,8268,3208C8262,3191,8088,3191,8082,3208C8080,3214,8073,3220,8067,3220C8051,3220,8020,3251,8020,3267C8020,3294,8070,3333,8129,3351C8172,3363,8232,3360,8279,3342ZM6787,3275C6861,3256,6888,3231,6874,3193C6858,3146,6807,3125,6710,3125C6621,3125,6582,3140,6559,3181C6543,3212,6594,3257,6665,3274C6698,3281,6726,3288,6727,3289C6728,3290,6755,3283,6787,3275ZM7598,3156C7641,3134,7667,3093,7653,3071C7637,3045,7605,3047,7575,3074C7551,3096,7538,3100,7484,3100C7428,3100,7417,3096,7376,3065C7336,3035,7327,3032,7310,3042C7299,3049,7290,3064,7290,3075C7291,3099,7312,3130,7329,3130C7335,3130,7340,3135,7340,3140C7340,3146,7346,3150,7354,3150C7361,3150,7381,3157,7396,3165C7433,3184,7554,3179,7598,3156ZM8250,3020C8279,2994,8284,2983,8284,2943C8285,2867,8238,2820,8159,2820C8095,2820,8044,2889,8056,2959C8072,3047,8181,3081,8250,3020ZM6773,2969C6803,2953,6830,2924,6830,2907C6830,2900,6835,2889,6841,2883C6855,2869,6829,2807,6794,2775C6756,2740,6684,2740,6646,2775C6591,2826,6589,2891,6643,2948C6667,2973,6682,2980,6713,2980C6734,2980,6761,2975,6773,2969Z" fill="rgb(172,172,168)" stroke="none" stroke-width="1"/><path id="ef2orqv7tczk33" d="M7285,5020C7188,5009,7080,4993,7060,4987C7052,4985,7027,4980,7005,4976C6970,4969,6914,4945,6835,4902C6783,4874,6798,4806,6865,4774C6884,4765,6900,4754,6900,4749C6900,4744,6903,4741,6908,4742C6931,4747,7020,4691,7067,4643C7085,4624,7088,4615,7080,4594C7067,4560,7052,4547,7000,4521C6904,4475,6889,4461,6897,4429C6902,4413,6925,4398,6940,4401C6943,4402,6969,4389,6997,4371C7057,4336,7134,4315,7235,4305C7386,4290,7894,4288,8059,4301L8223,4314L8217,4424C8213,4500,8204,4557,8189,4605C8163,4685,8096,4817,8069,4843C8058,4853,8050,4864,8050,4868C8049,4882,7965,4966,7935,4983C7918,4992,7887,5004,7865,5010C7814,5025,7390,5031,7285,5020Z" fill="rgb(130,243,169)" stroke="none" stroke-width="1"/><path id="ef2orqv7tczk34" d="M7100,4226C7100,4200,7071,4170,7046,4170C7037,4170,7005,4163,6977,4154C6948,4146,6907,4134,6885,4128C6863,4122,6841,4113,6836,4108C6830,4104,6820,4100,6814,4100C6792,4100,6655,4033,6624,4007C6608,3994,6586,3980,6575,3976C6564,3973,6542,3959,6526,3945C6510,3931,6494,3920,6489,3920C6485,3920,6448,3886,6407,3844C6341,3779,6310,3735,6254,3634C6224,3579,6208,3442,6225,3381C6244,3316,6263,3270,6272,3270C6276,3270,6280,3265,6280,3260C6280,3240,6361,3154,6440,3088L6484,3052L6457,3013C6442,2991,6430,2967,6430,2958C6430,2949,6426,2938,6420,2935C6402,2924,6409,2822,6431,2775C6459,2715,6545,2639,6600,2625C6603,2625,6621,2619,6640,2612C6659,2606,6692,2598,6714,2595C6735,2593,6761,2588,6771,2585C6808,2573,6980,2619,6980,2641C6980,2645,6986,2655,6993,2662C7000,2669,7018,2704,7033,2740C7049,2776,7065,2812,7069,2820C7076,2832,7120,2836,7331,2841C7471,2844,7592,2849,7600,2853C7608,2856,7633,2861,7655,2865C7677,2868,7731,2877,7775,2884C7862,2899,7890,2893,7890,2860C7890,2842,7907,2803,7920,2790C7923,2787,7932,2772,7940,2756C7959,2719,8026,2670,8057,2670C8069,2670,8080,2666,8080,2660C8080,2644,8222,2656,8283,2678C8365,2708,8400,2724,8400,2732C8400,2737,8406,2740,8413,2740C8427,2740,8500,2813,8500,2827C8500,2831,8509,2846,8520,2860C8535,2879,8540,2901,8540,2958C8540,2997,8536,3030,8531,3030C8526,3030,8519,3041,8516,3055C8513,3068,8499,3090,8485,3104C8444,3145,8454,3179,8510,3194C8550,3204,8660,3346,8660,3388C8660,3400,8665,3410,8670,3410C8676,3410,8680,3419,8680,3429C8680,3440,8685,3452,8690,3455C8696,3458,8700,3496,8700,3539C8700,3629,8676,3713,8623,3809C8578,3889,8432,4038,8367,4069C8341,4082,8314,4097,8307,4104C8285,4124,8251,4140,8232,4140C8200,4140,8177,4175,8184,4213L8190,4247L8103,4233C7992,4216,7453,4213,7320,4228C7268,4234,7197,4241,7163,4244C7103,4248,7100,4247,7100,4226ZM8273,3344C8336,3323,8354,3297,8334,3259C8312,3216,8258,3195,8169,3195C8101,3195,8089,3198,8057,3223C8012,3257,8011,3277,8050,3310C8108,3358,8193,3371,8273,3344ZM6787,3275C6861,3256,6888,3231,6874,3193C6858,3146,6807,3125,6710,3125C6619,3125,6582,3139,6560,3180C6543,3212,6592,3257,6665,3274C6698,3281,6726,3288,6727,3289C6728,3290,6755,3283,6787,3275ZM7598,3156C7641,3134,7667,3093,7653,3071C7637,3045,7605,3047,7575,3074C7551,3096,7538,3100,7484,3100C7428,3100,7417,3096,7376,3065C7336,3035,7327,3032,7310,3042C7299,3049,7290,3064,7290,3075C7291,3099,7312,3130,7329,3130C7335,3130,7340,3135,7340,3140C7340,3146,7346,3150,7354,3150C7361,3150,7381,3157,7396,3165C7433,3184,7554,3179,7598,3156ZM8250,3020C8279,2994,8284,2983,8284,2943C8285,2867,8238,2820,8159,2820C8095,2820,8044,2889,8056,2959C8072,3047,8181,3081,8250,3020ZM6773,2969C6803,2953,6830,2924,6830,2907C6830,2900,6835,2889,6841,2883C6855,2869,6829,2807,6794,2775C6756,2740,6684,2740,6646,2775C6591,2826,6589,2891,6643,2948C6667,2973,6682,2980,6713,2980C6734,2980,6761,2975,6773,2969Z" fill="rgb(130,243,169)" stroke="none" stroke-width="1"/><path id="ef2orqv7tczk35" d="M7474,2708C7493,2548,7493,2537,7463,2503C7421,2455,7396,2379,7412,2345C7425,2317,7467,2290,7498,2290C7508,2290,7526,2300,7538,2313C7567,2344,7567,2416,7539,2489C7526,2525,7517,2579,7513,2647C7508,2740,7505,2750,7488,2750C7471,2750,7469,2745,7474,2708Z" fill="rgb(130,243,169)" stroke="none" stroke-width="1"/><path id="ef2orqv7tczk36" d="M8183,2933C8166,2927,8167,2885,8184,2871C8204,2854,8240,2878,8240,2906C8240,2934,8214,2946,8183,2933Z" fill="rgb(198,240,255)" stroke="none" stroke-width="1"/><path id="ef2orqv7tczk37" d="M6732,2861C6714,2850,6720,2810,6742,2797C6754,2789,6763,2790,6774,2799C6791,2813,6796,2860,6781,2860C6776,2860,6766,2862,6758,2865C6751,2868,6739,2866,6732,2861Z" fill="rgb(198,240,255)" stroke="none" stroke-width="1"/></g></g><g id="ef2orqv7tczk38"><path id="ef2orqv7tczk39" d="M9787,4102C9797,4096,9800,3808,9803,2739L9805,1385L9808,2748C9810,4039,9809,4110,9793,4110C9780,4110,9779,4107,9787,4102Z" fill="rgb(60,62,60)" stroke="none" stroke-width="1"/><path id="ef2orqv7tczk40" d="M2028,3733C2051,3731,2089,3731,2113,3733C2136,3735,2117,3737,2070,3737C2023,3737,2004,3735,2028,3733Z" fill="rgb(60,62,60)" stroke="none" stroke-width="1"/><path id="ef2orqv7tczk41" d="M3002,2993L3005,2095L3007,2984C3010,3681,3013,3876,3023,3882C3031,3887,3030,3890,3018,3890C3001,3890,3000,3842,3002,2993Z" fill="rgb(60,62,60)" stroke="none" stroke-width="1"/><path id="ef2orqv7tczk42" d="M5394,3050C5394,2888,5396,2821,5397,2903C5399,2984,5399,3116,5397,3198C5396,3279,5394,3212,5394,3050Z" fill="rgb(60,62,60)" stroke="none" stroke-width="1"/><path id="ef2orqv7tczk43" d="M5382,2720C5382,2701,5384,2693,5387,2703C5389,2712,5389,2728,5387,2738C5384,2747,5382,2739,5382,2720Z" fill="rgb(60,62,60)" stroke="none" stroke-width="1"/><path id="ef2orqv7tczk44" d="M1713,2535C1713,2508,1715,2497,1717,2513C1719,2528,1719,2550,1717,2563C1715,2575,1713,2563,1713,2535Z" fill="rgb(60,62,60)" stroke="none" stroke-width="1"/><path id="ef2orqv7tczk45" d="M3345,2420C3372,2393,3396,2370,3399,2370C3402,2370,3382,2393,3355,2420C3328,2448,3304,2470,3301,2470C3298,2470,3318,2448,3345,2420Z" fill="rgb(60,62,60)" stroke="none" stroke-width="1"/><path id="ef2orqv7tczk46" d="M3703,2243C3718,2241,3742,2241,3758,2243C3773,2245,3760,2247,3730,2247C3700,2247,3687,2245,3703,2243Z" fill="rgb(60,62,60)" stroke="none" stroke-width="1"/><path id="ef2orqv7tczk47" d="M4898,2243C4915,2241,4945,2241,4963,2243C4980,2245,4966,2247,4930,2247C4894,2247,4880,2245,4898,2243Z" fill="rgb(60,62,60)" stroke="none" stroke-width="1"/><path id="ef2orqv7tczk48" d="M2033,2233C2042,2231,2058,2231,2068,2233C2077,2236,2069,2238,2050,2238C2031,2238,2023,2236,2033,2233Z" fill="rgb(60,62,60)" stroke="none" stroke-width="1"/></g><g id="ef2orqv7tczk49"/><g id="ef2orqv7tczk50"/><g id="ef2orqv7tczk51"/><g id="ef2orqv7tczk52"><path id="ef2orqv7tczk53" d="M5567,3882C5575,3877,5580,3838,5583,3770L5586,3665L5588,3778C5590,3879,5588,3890,5573,3890C5560,3890,5559,3887,5567,3882Z" fill="rgb(112,113,112)" stroke="none" stroke-width="1"/><path id="ef2orqv7tczk54" d="M2037,3733C2055,3731,2087,3731,2107,3733C2128,3735,2114,3737,2075,3737C2037,3737,2020,3735,2037,3733Z" fill="rgb(112,113,112)" stroke="none" stroke-width="1"/><path id="ef2orqv7tczk55" d="M5394,3080C5394,2934,5396,2875,5397,2948C5399,3020,5399,3140,5397,3213C5396,3285,5394,3226,5394,3080Z" fill="rgb(112,113,112)" stroke="none" stroke-width="1"/><path id="ef2orqv7tczk56" d="M3194,2940C3194,2761,3196,2688,3197,2778C3199,2867,3199,3013,3197,3103C3196,3192,3194,3119,3194,2940Z" fill="rgb(112,113,112)" stroke="none" stroke-width="1"/><path id="ef2orqv7tczk57" d="M1713,2535C1713,2513,1715,2505,1717,2518C1719,2530,1719,2548,1717,2558C1714,2567,1712,2557,1713,2535Z" fill="rgb(112,113,112)" stroke="none" stroke-width="1"/><path id="ef2orqv7tczk58" d="M3320,2447C3320,2445,3335,2431,3353,2414L3385,2385L3356,2418C3328,2448,3320,2455,3320,2447Z" fill="rgb(112,113,112)" stroke="none" stroke-width="1"/><path id="ef2orqv7tczk59" d="M2583,2280C2583,2244,2585,2230,2587,2248C2589,2265,2589,2295,2587,2313C2585,2330,2583,2316,2583,2280Z" fill="rgb(112,113,112)" stroke="none" stroke-width="1"/></g><g id="ef2orqv7tczk60"/><g id="ef2orqv7tczk61"><path id="ef2orqv7tczk62" d="M4248,3883C4277,3881,4322,3881,4348,3883C4374,3885,4350,3886,4295,3886C4240,3886,4219,3885,4248,3883Z" fill="rgb(141,141,141)" stroke="none" stroke-width="1"/><path id="ef2orqv7tczk63" d="M2048,3733C2066,3731,2093,3731,2108,3733C2123,3735,2108,3737,2075,3737C2042,3737,2030,3735,2048,3733Z" fill="rgb(141,141,141)" stroke="none" stroke-width="1"/><path id="ef2orqv7tczk64" d="M3194,2255C3194,2167,3196,2132,3197,2178C3199,2224,3199,2296,3197,2338C3196,2380,3194,2343,3194,2255Z" fill="rgb(141,141,141)" stroke="none" stroke-width="1"/></g><g id="ef2orqv7tczk65"/><g id="ef2orqv7tczk66"/><g id="ef2orqv7tczk67"/><g id="ef2orqv7tczk68"><path id="ef2orqv7tczk69" d="M2058,3733C2070,3731,2090,3731,2103,3733C2115,3735,2105,3737,2080,3737C2055,3737,2045,3735,2058,3733Z" fill="rgb(172,172,168)" stroke="none" stroke-width="1"/><path id="ef2orqv7tczk70" d="M3194,2945C3194,2769,3196,2698,3197,2788C3199,2878,3199,3022,3197,3108C3196,3194,3194,3121,3194,2945Z" fill="rgb(172,172,168)" stroke="none" stroke-width="1"/><path id="ef2orqv7tczk71" d="M3194,2250C3194,2165,3196,2130,3197,2173C3199,2215,3199,2285,3197,2328C3196,2370,3194,2335,3194,2250Z" fill="rgb(172,172,168)" stroke="none" stroke-width="1"/></g><g id="ef2orqv7tczk72"/></svg>